<svg width="328" height="84" viewBox="0 0 328 84" fill="none" xmlns="http://www.w3.org/2000/svg">
<path fill-rule="evenodd" clip-rule="evenodd" d="M236.585 0.322175C233.241 0.553873 230.316 0.826563 230.086 0.928748C229.855 1.03034 231.27 1.28164 233.231 1.4866C236.785 1.85851 236.779 1.8597 231.344 2.04268C228.345 2.14368 223.911 2.43656 221.489 2.69321C218.443 3.0164 219.993 3.07522 226.521 2.88392C241.44 2.44726 256.76 2.0611 258.73 2.0712C259.829 2.07714 260.435 1.84782 260.278 1.4866C260.107 1.09628 263.776 0.892508 270.971 0.892508C278.745 0.892508 281.841 1.07965 281.641 1.5377C281.464 1.94406 281.727 2.13179 282.35 2.04387C282.895 1.96663 283.624 2.06229 283.97 2.25656C284.316 2.45023 287.429 2.89461 290.889 3.24394C294.348 3.59327 297.887 4.11489 298.751 4.40303C299.617 4.69057 300.324 4.70483 300.324 4.43451C300.324 3.75962 299.214 3.36692 292.776 1.76345C291.969 1.56265 290.459 1.12183 289.421 0.784383C287.185 0.057208 245.665 -0.305785 236.585 0.322175ZM108.898 0.947758C106.927 1.27867 106.984 1.3054 109.841 1.39333C112.851 1.48542 113.761 1.23411 111.938 0.813493C111.419 0.693486 110.051 0.754082 108.898 0.947758ZM104.285 1.24005C103.824 1.34164 101.796 1.59651 99.7775 1.80623C97.7596 2.01594 96.1083 2.38428 96.1083 2.62549C96.1083 2.8661 96.7214 2.95699 97.4711 2.82689C98.5161 2.64569 98.6872 2.73659 98.205 3.2178C97.7269 3.69427 98.0288 3.83032 99.463 3.78338C101.184 3.72754 101.239 3.68239 100.092 3.2689L98.834 2.8156L100.372 2.7449C101.217 2.70629 101.972 2.91303 102.049 3.20473C102.128 3.50594 103.725 3.54277 105.753 3.28969C109.597 2.81085 109.531 2.58212 105.543 2.56964C104.16 2.56489 103.499 2.43062 104.076 2.27081C105.066 1.99634 106.407 0.793889 105.522 0.973306C105.303 1.01786 104.747 1.13787 104.285 1.24005ZM248.868 1.33154C247.436 1.44739 244.983 1.44799 243.417 1.33333C241.85 1.21926 243.022 1.12421 246.02 1.12361C249.018 1.12242 250.3 1.21629 248.868 1.33154ZM254.721 1.2858C254.433 1.45096 253.962 1.45096 253.673 1.2858C253.385 1.12123 253.621 0.986376 254.197 0.986376C254.774 0.986376 255.01 1.12123 254.721 1.2858ZM286.591 1.8799C286.303 2.04506 285.831 2.04506 285.542 1.8799C285.254 1.71533 285.49 1.58047 286.067 1.58047C286.643 1.58047 286.879 1.71533 286.591 1.8799ZM289.534 1.87633C289.25 2.03911 288.684 2.04921 288.276 1.89831C287.868 1.74741 288.1 1.61434 288.792 1.60245C289.484 1.59057 289.818 1.71355 289.534 1.87633ZM110.051 2.49003C110.455 2.63975 111.115 2.63975 111.519 2.49003C111.922 2.34092 111.592 2.21853 110.785 2.21853C109.978 2.21853 109.648 2.34092 110.051 2.49003ZM114.035 2.47399C114.323 2.63915 114.795 2.63915 115.083 2.47399C115.372 2.30943 115.136 2.17457 114.559 2.17457C113.982 2.17457 113.747 2.30943 114.035 2.47399ZM33.7558 3.45544C33.6351 3.73229 31.434 3.90399 28.8643 3.83685C24.2017 3.71625 16.0352 4.59076 14.6606 5.35833C14.2006 5.61498 13.967 6.31126 14.0224 7.26004C14.1167 8.87479 14.1817 8.93242 16.5396 9.48731C18.4694 9.94179 18.625 10.903 16.7493 10.7824C15.5005 10.7022 15.3965 10.8317 15.5072 12.3289C15.6129 13.7595 15.4825 13.9638 14.4589 13.9715C12.9925 13.9834 12.4759 14.5116 12.3601 16.118C12.2851 17.163 12.5572 17.447 13.9326 17.7583C16.1589 18.2627 16.0385 19.0843 13.6831 19.4604C11.8226 19.7575 9.50909 21.8974 9.95191 22.9121C10.0618 23.1646 9.58541 23.5478 8.89309 23.7635C7.80492 24.1021 7.71518 24.2696 8.23054 24.9998C8.55846 25.4644 9.07634 25.8487 9.3812 25.8535C9.79885 25.8606 9.78418 25.9979 9.32165 26.4125C8.89183 26.7975 9.38203 27.0167 10.9608 27.1457C13.1862 27.3274 13.2135 27.3524 13.2512 29.2606C13.2726 30.3229 13.1481 31.1915 12.9753 31.1915C12.8025 31.1915 12.6608 31.7261 12.6608 32.3796C12.6608 33.2601 12.3622 33.5886 11.5076 33.6486C10.5025 33.7193 10.4769 33.7627 11.3089 33.9891C12.5245 34.3194 14.7357 35.9359 13.9788 35.9407C13.6588 35.9424 13.5104 36.3149 13.6395 36.792C13.9809 38.0521 13.1506 38.7317 10.391 39.4518C7.92192 40.0958 6.85806 40.697 8.18777 40.697C8.5723 40.697 8.8868 41.098 8.8868 41.5881C8.8868 42.2815 8.32783 42.4793 6.3708 42.4793C3.65771 42.4793 2.81401 43.614 5.4273 43.7483C6.40057 43.7982 6.64043 43.9271 6.0563 44.0869C5.53716 44.2283 5.1128 44.5747 5.1128 44.8569C5.1128 45.1391 4.73246 45.5407 4.26784 45.7498C3.80322 45.9583 3.52729 46.3677 3.65393 46.6582C3.78099 46.9493 3.26479 47.4406 2.50705 47.7501C1.31656 48.2367 1.55684 48.3228 4.27413 48.3846C7.50342 48.4583 7.62335 49.0839 4.55802 49.8645C3.19896 50.2103 3.03332 50.4075 3.47236 51.1567C3.88918 51.8684 4.06069 51.8904 4.35003 51.2701C4.6293 50.6707 4.84945 50.7598 5.33923 51.67C5.91666 52.7423 5.8894 52.8891 5.01677 53.4237C4.20158 53.9228 4.39699 54.0535 6.3708 54.3327C8.44063 54.625 8.58572 54.7325 7.78605 55.3819C7.29627 55.7799 6.06972 56.2837 5.06038 56.5012C1.92334 57.1773 1.74261 57.8854 4.69346 57.9395L7.41913 57.9888L3.85479 59.8881L0.290454 61.7874L2.38712 62.0845L4.48379 62.3815L2.01308 63.1853C0.28668 63.7474 -0.281517 64.1472 0.126075 64.5132C0.447285 64.8013 1.08719 65.0597 1.54846 65.0876C2.38125 65.1381 2.38126 65.1417 1.55601 65.5986C0.953004 65.9319 1.4713 66.1992 3.44301 66.5717C5.90576 67.0363 6.00346 67.1046 4.48379 67.2977C3.56126 67.4147 2.6274 67.7605 2.40809 68.0653C2.1611 68.4087 3.91392 68.6374 7.02077 68.6665C10.8908 68.7027 11.7693 68.8495 10.8786 69.3099C10.2102 69.6563 9.72547 70.3513 9.72547 70.9645C9.72547 71.8223 8.99247 72.2334 5.85208 73.1365C3.72186 73.749 2.33429 74.3472 2.7683 74.4655C3.39981 74.6378 3.44049 74.7857 2.9721 75.2057C2.54186 75.5919 2.6643 75.7351 3.43546 75.7487C4.01204 75.7588 4.76139 76.0161 5.10105 76.3202C5.78708 76.9345 5.60887 77.0848 3.37675 77.7734C2.76788 77.9611 2.16739 78.4934 2.04201 78.9568C1.8508 79.6614 2.57541 79.7541 6.50373 79.5248C9.96952 79.3228 11.0292 79.4214 10.5641 79.9026C10.0337 80.4522 10.0668 80.5395 10.7738 80.4599C12.1752 80.3007 12.4822 80.4908 11.8221 81.1087C11.3944 81.5091 11.9978 81.5614 13.7091 81.2726C16.8416 80.7433 16.6814 80.7373 23.7732 81.6546C28.1191 82.2166 34.4901 82.3081 48.3042 82.0081C59.7709 81.7586 70.5209 81.8442 76.1899 82.2291C94.8733 83.4999 96.7318 83.589 96.4647 83.1981C96.315 82.9789 94.2393 82.6545 91.8521 82.4775C89.4652 82.301 87.3325 81.9172 87.1136 81.6261C86.5676 80.8995 122.676 80.956 135.41 81.7016C142.715 82.1293 197.891 82.9664 217.086 82.9409C221.369 82.9349 240.047 82.184 240.904 81.9832C241.612 81.8168 241.977 81.9398 241.823 82.2927C241.683 82.6147 241.756 82.8779 241.987 82.8779C242.218 82.8779 242.523 82.6105 242.666 82.2838C243.005 81.5049 244.553 81.5138 244.553 82.2945C244.553 82.9664 254.458 83.0062 261.692 82.364C265.005 82.0699 266.091 82.1561 266.245 82.7246C266.357 83.1357 266.721 83.472 267.057 83.472C267.392 83.472 267.549 83.2046 267.406 82.8779C267.264 82.5511 267.488 82.238 267.906 82.1822C268.323 82.1263 268.947 82.0212 269.293 81.9481C269.639 81.8756 270.96 81.7836 272.229 81.7438C273.634 81.6998 274.32 81.4782 273.985 81.1776C273.441 80.6886 276.415 80.2336 284.809 79.523C289.028 79.166 290.938 78.1905 287.723 78.0348C286.697 77.9849 285.668 77.8821 285.438 77.8061C285.207 77.73 283.226 77.6005 281.035 77.5185L277.051 77.3682L279.777 76.906C281.276 76.6517 284.357 76.36 286.625 76.2585C288.892 76.1563 290.837 75.8663 290.948 75.6139C291.058 75.3614 291.525 75.1546 291.987 75.1546C292.448 75.1546 292.724 74.9223 292.6 74.6378C292.475 74.3508 291.578 74.3395 290.584 74.6122C288.576 75.1623 286.662 75.3008 286.964 74.8742C287.367 74.3015 296.055 72.1806 296.656 72.5073C297.008 72.698 297.39 72.442 297.531 71.921C297.709 71.2645 298.424 70.968 299.996 70.8991L302.211 70.8023L299.905 70.4518C298.09 70.1755 297.839 70.0252 298.727 69.7466C299.348 69.5511 300.763 69.5903 301.872 69.8327C302.981 70.0751 303.931 70.2195 303.983 70.1535C304.036 70.087 303.778 69.4251 303.411 68.6819C302.968 67.7872 302.602 67.5306 302.326 67.9215C302.05 68.313 301.465 68.3029 300.592 67.8906C298.25 66.785 298.619 66.5361 302.284 66.7529C304.841 66.9038 305.798 66.7749 305.594 66.3073C305.417 65.9022 305.679 65.6283 306.275 65.5956C307.137 65.5481 303.016 64.3617 299.695 63.701C299.003 63.5632 299.852 63.4064 301.582 63.3529C303.312 63.2988 305.01 62.9952 305.356 62.6786C305.878 62.2009 305.842 62.0993 305.146 62.0845C304.685 62.0744 304.025 61.7839 303.679 61.4387C303.219 60.9801 303.585 60.9123 305.04 61.1874C307.643 61.6781 308.193 61.1595 306.992 59.3487C306.46 58.5466 306.274 57.9258 306.566 57.9258C306.85 57.9258 306.966 57.6585 306.824 57.3317C306.681 57.005 305.774 56.7335 304.807 56.7287C303.84 56.7234 302.767 56.4406 302.421 56.0996C301.968 55.654 302.409 55.5886 303.993 55.8679C306.233 56.2617 307.081 55.4704 305.251 54.6927C304.331 54.3018 304.328 54.2781 305.146 53.7214C305.811 53.2699 305.678 53.2027 304.506 53.4C302.818 53.6846 301.045 52.4037 302.233 51.7579C302.605 51.5559 303.248 51.3907 303.661 51.3907C304.076 51.3907 304.649 50.9897 304.937 50.4996C305.347 49.7998 305.348 49.6085 304.943 49.6085C304.657 49.6085 304.535 49.2116 304.669 48.7173C304.824 48.1446 304.653 47.8113 304.19 47.7846C303.592 47.7495 303.612 47.6598 304.308 47.2558C305.087 46.8031 305.063 46.7223 303.966 46.1092C303.317 45.7468 302.515 45.4498 302.184 45.4498C301.853 45.4498 301.582 45.1824 301.582 44.8557C301.582 44.5289 302.667 44.2354 303.993 44.204L306.404 44.1463L304.832 43.232C303.127 42.2411 302.818 41.0737 304.019 40.1629C304.437 39.8463 306.89 39.3977 309.47 39.166C312.051 38.9349 314.162 38.5387 314.162 38.2856C314.162 38.0325 313.643 37.5572 313.009 37.2287C312.044 36.7296 312.351 36.6245 314.896 36.5853C316.621 36.5585 317.936 36.2811 317.936 35.9442C317.936 35.6175 317.547 35.3501 317.073 35.3501C316.598 35.3501 316.321 35.0947 316.457 34.7822C316.593 34.4697 316.982 34.3645 317.32 34.5487C317.659 34.7323 317.936 34.6319 317.936 34.3253C317.936 34.0182 317.039 33.4692 315.944 33.105C314.253 32.543 314.903 32.4717 320.242 32.6321L326.532 32.8217L321.081 31.7356C311.542 29.8351 311.713 29.8844 312.904 29.3789C313.874 28.9671 313.884 28.9291 313.034 28.8745C311.755 28.7919 311.43 27.7671 312.583 27.4534C313.112 27.309 312.758 27.1587 311.786 27.1136C310.825 27.069 309.976 26.769 309.899 26.447C309.822 26.125 307.589 25.6426 304.937 25.3758C300.213 24.9006 300.151 24.8756 301.884 24.1609C303.013 23.6957 305.955 23.4795 310.008 23.5632C315.874 23.685 316.408 23.606 316.957 22.542C317.479 21.5279 318.182 21.3651 322.776 21.1916C326.941 21.0348 328 20.8239 328 20.1519C328 19.6885 327.836 19.3095 327.636 19.3095C327.046 19.3095 319.89 17.5195 319.089 17.172C317.574 16.5137 318.44 15.7426 320.766 15.6766C323.152 15.6089 323.16 15.6029 321.5 15.117C320.578 14.8467 318.313 14.59 316.468 14.5472C313.182 14.47 308.726 13.6626 309.969 13.3685C311.152 13.0887 306.827 12.2683 303.937 12.2243C301.417 12.1857 300.925 11.9914 300.077 10.6951L299.106 9.20986L300.868 9.1564L302.63 9.10293L301.197 8.51893C300.408 8.19812 299.417 8.06385 298.995 8.2201C298.573 8.37635 298.227 8.28189 298.227 8.00979C298.227 7.73769 297.897 7.39252 297.493 7.24281C297.09 7.09369 297.609 6.90655 298.647 6.82813L300.534 6.68495L298.647 6.23463C292.479 4.76364 248.618 3.95151 234.489 5.04703C230.452 5.36012 225.232 5.62271 222.887 5.63043C219.878 5.64112 218.561 5.86391 218.411 6.3879C218.251 6.94695 218.112 6.95943 217.848 6.43662C217.553 5.85084 208.845 5.17654 208.07 5.67915C207.314 6.17046 96.8509 6.10571 89.3989 5.60964C84.4403 5.27932 78.7793 4.90504 76.8189 4.7779C74.8585 4.65077 69.0235 4.40719 63.8527 4.23787C58.6815 4.06796 52.5487 3.7614 50.2243 3.55703C43.5033 2.96531 33.9953 2.9065 33.7558 3.45544ZM246.571 3.08057C246.873 3.25226 247.235 3.23087 247.374 3.03363C247.513 2.83639 247.266 2.69619 246.824 2.72173C246.336 2.75025 246.236 2.89105 246.571 3.08057ZM235.249 3.67466C235.551 3.84636 235.913 3.82497 236.052 3.62773C236.191 3.43049 235.944 3.29028 235.502 3.31583C235.014 3.34434 234.914 3.48515 235.249 3.67466ZM238.603 3.67466C238.906 3.84636 239.268 3.82497 239.407 3.62773C239.546 3.43049 239.299 3.29028 238.857 3.31583C238.368 3.34434 238.269 3.48515 238.603 3.67466ZM103.971 4.87652C104.49 5.01792 105.339 5.01792 105.858 4.87652C106.377 4.73453 105.952 4.61868 104.914 4.61868C103.876 4.61868 103.452 4.73453 103.971 4.87652ZM188.894 7.2232C188.61 7.38599 188.044 7.39609 187.636 7.24519C187.228 7.09429 187.46 6.96121 188.152 6.94933C188.844 6.93744 189.178 7.06042 188.894 7.2232ZM296.436 7.19231C296.297 7.38955 295.935 7.41094 295.633 7.23924C295.298 7.04973 295.398 6.90893 295.886 6.88041C296.328 6.85486 296.576 6.99507 296.436 7.19231ZM233.949 8.24743C234.092 8.45001 232.715 8.64607 230.889 8.68349C229.063 8.72033 222.758 8.88668 216.876 9.05243C210.995 9.21878 190.178 9.56038 170.616 9.81287C151.054 10.0654 134.019 10.4533 132.762 10.6761C130.451 11.0848 127.686 10.6131 128.193 9.89604C128.485 9.48315 132.454 9.37265 154.71 9.16055C163.205 9.07916 168.653 8.80588 168.653 8.46071C168.653 8.1494 168.919 8.0389 169.243 8.21534C170.14 8.7025 184.104 8.61993 194.232 8.06742C204.135 7.52679 233.535 7.66046 233.949 8.24743ZM244.902 7.72522C244.6 8.15237 237.413 8.20406 237.114 7.78106C236.977 7.58679 238.72 7.42757 240.988 7.42757C243.256 7.42757 245.017 7.56125 244.902 7.72522ZM246.536 7.78641C246.396 7.98365 246.034 8.00504 245.732 7.83334C245.397 7.64382 245.497 7.50303 245.985 7.47451C246.427 7.44896 246.675 7.58917 246.536 7.78641ZM214.68 8.4417C215.202 8.58369 215.956 8.57834 216.357 8.42981C216.758 8.28129 216.331 8.16485 215.409 8.17138C214.486 8.17792 214.158 8.29971 214.68 8.4417ZM271.953 8.46724C272.06 8.71201 269.539 8.91282 266.352 8.91282C263.165 8.91282 260.416 8.71201 260.243 8.46724C260.07 8.22248 262.59 8.02167 265.844 8.02167C269.098 8.02167 271.847 8.22248 271.953 8.46724ZM274.116 8.61577C272.97 9.31324 272.648 9.31324 272.648 8.61577C272.648 8.28901 273.167 8.04068 273.801 8.06326C274.823 8.10069 274.859 8.16307 274.116 8.61577ZM197.509 9.02153C197.811 9.19323 198.173 9.17184 198.312 8.9746C198.451 8.77736 198.204 8.63716 197.762 8.6627C197.273 8.69122 197.174 8.83202 197.509 9.02153ZM200.006 9.04649C200.759 9.17838 201.892 9.176 202.522 9.04054C203.152 8.9045 202.535 8.79637 201.151 8.79994C199.768 8.80291 199.252 8.914 200.006 9.04649ZM115.358 10.4331C115.056 10.6975 114.638 10.764 114.429 10.5816C114.221 10.3992 114.297 10.0333 114.599 9.76891C114.901 9.50454 115.319 9.438 115.527 9.62039C115.736 9.80277 115.659 10.1687 115.358 10.4331ZM122.946 9.93288C122.946 10.1889 121.578 10.3666 119.905 10.328C117.649 10.2757 117.189 10.1432 118.123 9.81406C119.733 9.2461 122.946 9.32572 122.946 9.93288ZM127.139 9.52177C127.139 10.1563 124.875 11.0266 124.236 10.6375C123.714 10.319 123.795 10.139 124.623 9.78138C125.904 9.22769 127.139 9.10055 127.139 9.52177ZM113.496 10.4319C113.361 10.7397 111.8 10.988 110.026 10.9832C108.253 10.9779 107.022 10.7777 107.292 10.5377C108.038 9.87288 113.782 9.77485 113.496 10.4319ZM247.601 10.1937C247.317 10.3565 246.751 10.3666 246.343 10.2157C245.935 10.0648 246.167 9.93169 246.859 9.91981C247.551 9.90793 247.885 10.0309 247.601 10.1937ZM276.946 10.8175C276.427 10.9589 275.578 10.9589 275.059 10.8175C274.54 10.6755 274.965 10.5597 276.003 10.5597C277.04 10.5597 277.465 10.6755 276.946 10.8175ZM16.8541 18.7154C16.8541 19.0422 16.7711 19.3095 16.6692 19.3095C16.5673 19.3095 16.3677 19.0422 16.2251 18.7154C16.0826 18.3887 16.166 18.1213 16.4101 18.1213C16.6541 18.1213 16.8541 18.3887 16.8541 18.7154ZM5.45372 40.5087C5.75606 40.6804 6.11794 40.659 6.25716 40.4617C6.39638 40.2645 6.14897 40.1243 5.70699 40.1498C5.21847 40.1784 5.11909 40.3192 5.45372 40.5087ZM303.565 50.5614C303.426 50.7586 303.064 50.78 302.762 50.6083C302.427 50.4188 302.526 50.278 303.015 50.2495C303.457 50.2239 303.704 50.3641 303.565 50.5614ZM8.8868 51.9848C8.8868 52.3116 8.68678 52.5789 8.44272 52.5789C8.19867 52.5789 8.11523 52.3116 8.2578 51.9848C8.40037 51.6581 8.59998 51.3907 8.70188 51.3907C8.80378 51.3907 8.8868 51.6581 8.8868 51.9848ZM133.656 60.9361C134.107 61.9704 133.593 62.1896 133.018 61.2076C132.687 60.6432 132.655 60.3022 132.934 60.3022C133.179 60.3022 133.504 60.5874 133.656 60.9361ZM160.247 62.3988C160.496 62.1807 160.591 61.7536 160.458 61.4494C160.32 61.1316 161.283 60.8963 162.723 60.8963C164.17 60.8963 165.293 61.172 165.382 61.5486C165.467 61.9075 166.422 62.3429 167.505 62.5158C170.204 62.9471 169.589 63.862 166.752 63.6357C165.045 63.4996 164.46 63.6577 164.46 64.2541C164.46 65.2629 162.925 65.3122 162.641 64.3124C162.518 63.8816 162.415 64.0212 162.396 64.6445C162.378 65.2356 162.208 65.5837 162.018 65.4174C161.829 65.2516 161.359 65.6366 160.974 66.2735C160.153 67.6328 158.17 67.8472 158.17 66.5776C158.17 65.9277 157.806 65.8077 156.646 66.0739C155.45 66.3489 155.166 66.2449 155.328 65.5914C155.442 65.1328 155.802 64.7853 156.129 64.8185C156.457 64.8518 156.982 64.4876 157.298 64.01C157.795 63.2549 157.684 63.1943 156.448 63.5483C155.665 63.7723 154.71 64.0801 154.326 64.2322C153.942 64.3848 153.517 64.2559 153.382 63.947C153.247 63.6375 154.091 63.1984 155.257 62.9715C156.423 62.7439 157.603 62.2093 157.878 61.7827C158.289 61.147 158.507 61.1684 159.087 61.9009C159.476 62.3928 159.998 62.6168 160.247 62.3988ZM219.392 61.7203C219.392 62.2081 216.828 62.4534 216.624 61.9853C216.505 61.7132 217.079 61.4904 217.9 61.4904C218.721 61.4904 219.392 61.5938 219.392 61.7203ZM142.821 65.2974C142.461 66.6276 141.933 65.9628 142.059 64.3373C142.217 62.3162 142.227 62.2996 142.668 63.3701C142.892 63.9137 142.96 64.7811 142.821 65.2974ZM172.54 63.0683C172.256 63.2311 171.69 63.2412 171.282 63.0903C170.874 62.9394 171.106 62.8063 171.798 62.7944C172.49 62.7826 172.824 62.9055 172.54 63.0683ZM186.684 63.303C183.995 63.9808 174.434 63.9589 173.685 63.2727C173.268 62.8907 175.669 62.719 180.814 62.7618C186.12 62.8069 187.975 62.9774 186.684 63.303ZM195.386 63.104C194.751 63.24 193.714 63.24 193.079 63.104C192.445 62.9679 192.964 62.8568 194.232 62.8568C195.501 62.8568 196.02 62.9679 195.386 63.104ZM199.369 63.0719C199.081 63.237 198.609 63.237 198.321 63.0719C198.033 62.9073 198.269 62.7725 198.845 62.7725C199.422 62.7725 199.658 62.9073 199.369 63.0719ZM203.563 63.0719C203.275 63.237 202.803 63.237 202.514 63.0719C202.226 62.9073 202.462 62.7725 203.038 62.7725C203.615 62.7725 203.851 62.9073 203.563 63.0719ZM132.171 63.5632C132.171 64.4282 130.608 66.2402 129.876 66.2236C129.059 66.2046 129.063 66.16 129.985 65.0704L130.944 63.9375L129.147 63.7087C127.568 63.5079 127.643 63.4675 129.76 63.3767C131.086 63.3196 132.171 63.4034 132.171 63.5632ZM134.154 63.6315C134.015 63.8288 133.653 63.8501 133.351 63.6785C133.016 63.4889 133.115 63.3481 133.604 63.3196C134.046 63.2941 134.293 63.4343 134.154 63.6315ZM159.847 63.8668C159.847 64.1935 160.047 64.4609 160.291 64.4609C160.535 64.4609 160.619 64.1935 160.476 63.8668C160.333 63.54 160.134 63.2727 160.032 63.2727C159.93 63.2727 159.847 63.54 159.847 63.8668ZM290.985 63.6315C290.846 63.8288 290.484 63.8501 290.182 63.6785C289.847 63.4889 289.946 63.3481 290.435 63.3196C290.877 63.2941 291.124 63.4343 290.985 63.6315ZM294.139 63.666C293.851 63.8311 293.379 63.8311 293.09 63.666C292.802 63.5014 293.038 63.3666 293.615 63.3666C294.191 63.3666 294.427 63.5014 294.139 63.666ZM114.026 64.2256C113.887 64.4229 113.525 64.4442 113.223 64.2725C112.888 64.083 112.987 63.9422 113.476 63.9137C113.918 63.8882 114.165 64.0284 114.026 64.2256ZM125.785 64.5726C125.694 64.9605 125.369 65.396 125.062 65.5404C124.75 65.6883 124.626 65.5285 124.781 65.1744C124.935 64.8215 124.639 64.4324 124.105 64.2874C123.429 64.1032 123.558 64.0052 124.553 63.9476C125.465 63.8947 125.893 64.1121 125.785 64.5726ZM139.09 65.055C138.937 65.7364 139.015 66.2432 139.272 66.2432C139.518 66.2432 139.719 66.466 139.719 66.738C139.719 67.5098 138.014 67.1409 137.642 66.2883C137.385 65.6984 137.107 65.6806 136.409 66.2093C135.914 66.5848 135.304 66.7137 135.055 66.4951C134.552 66.0542 137.382 63.9915 138.594 63.9149C139.171 63.8787 139.291 64.1561 139.09 65.055ZM218.344 64.4609C218.487 64.7876 218.403 65.055 218.159 65.055C217.915 65.055 217.715 64.7876 217.715 64.4609C217.715 64.1341 217.798 63.8668 217.9 63.8668C218.002 63.8668 218.202 64.1341 218.344 64.4609ZM222.328 64.1288C222.328 64.2731 222.139 64.5559 221.908 64.7579C221.678 64.9599 221.489 64.8417 221.489 64.4959C221.489 64.1502 221.678 63.8668 221.908 63.8668C222.139 63.8668 222.328 63.9844 222.328 64.1288ZM283.663 64.2565C283.379 64.4193 282.813 64.4294 282.405 64.2785C281.997 64.1276 282.23 63.9945 282.922 63.9826C283.613 63.9708 283.947 64.0937 283.663 64.2565ZM285.953 64.2256C285.814 64.4229 285.452 64.4442 285.15 64.2725C284.815 64.083 284.914 63.9422 285.403 63.9137C285.845 63.8882 286.092 64.0284 285.953 64.2256ZM120.22 65.055C120.363 65.3817 120.279 65.6491 120.035 65.6491C119.791 65.6491 119.591 65.3817 119.591 65.055C119.591 64.7282 119.674 64.4609 119.776 64.4609C119.878 64.4609 120.077 64.7282 120.22 65.055ZM169.797 64.8197C169.658 65.017 169.296 65.0383 168.994 64.8666C168.659 64.6771 168.759 64.5363 169.247 64.5078C169.689 64.4823 169.937 64.6225 169.797 64.8197ZM171.894 64.8197C171.755 65.017 171.393 65.0383 171.091 64.8666C170.756 64.6771 170.855 64.5363 171.344 64.5078C171.786 64.4823 172.033 64.6225 171.894 64.8197ZM175.782 65.352C175.782 65.8422 175.97 66.2432 176.201 66.2432C176.432 66.2432 176.62 65.9093 176.62 65.5005C176.619 64.9492 177.54 64.8078 180.189 64.9504C182.349 65.0669 183.661 65.3699 183.51 65.7174C183.372 66.0329 182.926 66.1416 182.519 65.9586C182.112 65.7756 181.232 66.0311 180.563 66.5254C179.486 67.3215 179.331 67.3226 179.211 66.5367C179.059 65.5445 177.233 65.3194 176.83 66.2432C176.549 66.8878 174.82 67.0589 174.413 66.482C174.005 65.9039 174.565 64.4609 175.198 64.4609C175.519 64.4609 175.782 64.8619 175.782 65.352ZM214.36 65.352C213.919 66.1065 214.011 66.2432 214.963 66.2432C215.606 66.2432 215.976 66.4974 215.828 66.8373C215.686 67.164 215.171 67.4314 214.685 67.4314C214.199 67.4314 213.936 67.6227 214.101 67.8561C214.266 68.0896 215.928 68.1983 217.795 68.0985C220.827 67.9358 221.16 68.0225 220.92 68.9119C220.742 69.5666 220.83 69.8137 221.174 69.6349C221.463 69.4846 221.652 69.0616 221.594 68.6938C221.536 68.3261 221.972 68.0255 222.562 68.0255C223.171 68.0255 223.523 68.2827 223.376 68.6196C223.234 68.9463 223.317 69.2137 223.561 69.2137C223.805 69.2137 224.005 68.9463 224.005 68.6196C224.005 67.631 225.573 67.9542 225.857 69.0016C226.002 69.5386 226.059 70.0674 225.981 70.1767C225.904 70.2854 223.982 70.4476 221.709 70.5367C218.692 70.6549 217.529 70.4987 217.401 69.9563C217.305 69.5481 216.853 69.2137 216.398 69.2137C215.942 69.2137 215.686 69.481 215.828 69.8077C215.98 70.1541 215.553 70.4018 214.805 70.4018C214.099 70.4018 213.522 70.1345 213.522 69.8077C213.522 69.481 212.824 69.2137 211.97 69.2137C210.274 69.2137 210.491 68.2637 212.264 67.9274C213.052 67.7777 213.345 67.3232 213.445 66.0946C213.526 65.093 213.83 64.4609 214.23 64.4609C214.763 64.4609 214.787 64.6248 214.36 65.352ZM256.084 65.8309C256.545 66.0014 256.026 66.1137 254.931 66.081C253.836 66.0483 252.939 65.7857 252.939 65.4982C252.939 65.21 253.34 65.1554 253.83 65.3758C254.512 65.6817 254.641 65.5867 254.379 64.97C254.11 64.3361 254.165 64.3088 254.641 64.8423C254.973 65.216 255.623 65.6604 256.084 65.8309ZM203.667 65.6491C203.525 65.9758 203.231 66.2432 203.014 66.2432C202.797 66.2432 202.619 65.9758 202.619 65.6491C202.619 65.3223 202.914 65.055 203.273 65.055C203.632 65.055 203.81 65.3223 203.667 65.6491ZM159.008 66.2432C159.821 66.9876 160.266 66.9876 160.266 66.2432C160.266 65.9164 159.842 65.6532 159.323 65.658C158.56 65.6657 158.5 65.7774 159.008 66.2432ZM198.426 66.501C198.426 66.9834 198.926 67.4432 199.579 67.5615C200.504 67.729 200.39 67.8264 199.002 68.0552C197.426 68.3148 197.273 68.2209 197.273 66.9947C197.273 66.2491 197.53 65.6491 197.849 65.6491C198.166 65.6491 198.426 66.0323 198.426 66.501ZM211.425 66.1546C211.425 66.4529 210.667 66.7119 209.739 66.7303C208.812 66.7482 208.138 66.5681 208.242 66.3305C208.524 65.6853 211.425 65.5249 211.425 66.1546ZM80.8026 66.8373C80.9452 67.164 80.7674 67.4314 80.408 67.4314C80.0486 67.4314 79.7543 67.164 79.7543 66.8373C79.7543 66.5105 79.9316 66.2432 80.1489 66.2432C80.3661 66.2432 80.66 66.5105 80.8026 66.8373ZM164.04 66.8723C164.04 67.2181 163.831 67.3179 163.574 67.0933C163.318 66.8688 162.943 67.0535 162.742 67.5038C162.452 68.1514 162.374 68.1051 162.369 67.2828C162.366 66.6365 162.68 66.2432 163.202 66.2432C163.663 66.2432 164.04 66.5266 164.04 66.8723ZM169.911 66.6887C169.911 66.9335 169.457 67.1343 168.903 67.1343C168.348 67.1343 167.982 66.9335 168.089 66.6887C168.196 66.444 168.649 66.2432 169.097 66.2432C169.545 66.2432 169.911 66.444 169.911 66.6887ZM249.794 66.8373C249.652 67.164 249.122 67.4123 248.616 67.3898C247.731 67.3494 247.728 67.3298 248.536 66.8373C249.69 66.1344 250.101 66.1344 249.794 66.8373ZM280.615 66.8373C280.615 67.164 281.04 67.4355 281.559 67.4403C282.077 67.4456 282.785 67.7088 283.131 68.0255C283.595 68.4502 283.265 68.6344 281.873 68.7265C280.835 68.7954 279.326 68.9576 278.519 69.0865C277.711 69.216 270.541 69.4002 262.584 69.4958C254.627 69.5915 249.249 69.4703 250.633 69.2261C252.017 68.9825 254.092 68.6166 255.246 68.4134C259.676 67.6334 265.05 67.4302 265.312 68.032C265.458 68.3659 265.771 68.4692 266.007 68.2619C266.244 68.0552 266.879 68.2197 267.418 68.6285C267.957 69.0372 268.741 69.1774 269.16 68.9398C269.579 68.7021 271.278 68.4609 272.936 68.4039C274.593 68.3469 276.072 68.1253 276.223 67.9114C276.373 67.6981 277.14 67.6714 277.927 67.852C279.065 68.1134 279.357 67.9827 279.357 67.2121C279.357 66.6792 279.64 66.2432 279.986 66.2432C280.332 66.2432 280.615 66.5105 280.615 66.8373ZM292.951 66.9858C293.146 67.5799 293.244 67.5799 293.44 66.9858C293.703 66.1873 297.204 65.9331 297.534 66.6887C297.64 66.9335 296.897 67.0405 295.881 66.9258C294.728 66.7957 294.034 66.9632 294.034 67.3714C294.034 68.3623 292.062 68.1544 291.785 67.1343C291.492 66.0507 292.596 65.9099 292.951 66.9858ZM195.7 67.4314C195.558 67.7581 194.933 68.0064 194.313 67.9839C193.305 67.9464 193.274 67.887 194.023 67.4314C195.188 66.722 196.01 66.722 195.7 67.4314ZM235.118 67.4314C234.975 67.7581 235.247 68.0255 235.722 68.0255C236.196 68.0255 236.585 67.7581 236.585 67.4314C236.585 66.7297 237.398 66.8884 238.088 67.7248C238.722 68.4918 236.568 69.8458 235.402 69.4139C234.952 69.2469 234.456 69.4008 234.301 69.7561C234.146 70.1113 233.737 70.4018 233.391 70.4018C233.045 70.4018 232.887 70.1137 233.041 69.762C233.234 69.3188 232.726 69.2481 231.388 69.5321C230.216 69.781 229.456 69.7151 229.456 69.364C229.456 69.0461 230.538 68.6273 231.861 68.4342C233.184 68.2411 234.331 67.8027 234.412 67.4599C234.492 67.1177 234.743 66.8373 234.967 66.8373C235.193 66.8373 235.26 67.1046 235.118 67.4314ZM247.107 67.385C246.782 67.6767 245.961 67.8157 245.282 67.694C244.331 67.5234 243.998 67.7409 243.832 68.6404C243.713 69.2826 243.455 69.8077 243.259 69.8077C242.806 69.8077 243.294 67.8734 243.893 67.2917C244.14 67.0517 245.098 66.8557 246.02 66.8557C247.165 66.8557 247.51 67.0238 247.107 67.385ZM99.463 67.9559C99.463 68.6635 97.8418 69.2285 97.5739 68.6148C97.4569 68.3463 97.5982 67.9916 97.8879 67.8258C98.7467 67.3351 99.463 67.3945 99.463 67.9559ZM104.914 68.0255C104.914 68.3522 104.737 68.6196 104.52 68.6196C104.302 68.6196 104.009 68.3522 103.866 68.0255C103.723 67.6987 103.901 67.4314 104.261 67.4314C104.62 67.4314 104.914 67.6987 104.914 68.0255ZM112.462 67.9607C112.462 68.859 109.4 69.0503 108.28 68.2221C107.299 67.4967 107.415 67.4385 109.841 67.4349C111.283 67.4331 112.462 67.6696 112.462 67.9607ZM113.752 68.1888C113.7 68.8994 113.125 68.7615 112.945 67.9958C112.852 67.6036 113.003 67.3898 113.28 67.5205C113.557 67.6512 113.769 67.9518 113.752 68.1888ZM117.465 70.0602C117.481 70.3626 117.145 70.0953 116.717 69.4661C116.19 68.6908 116.088 68.1859 116.402 67.8989C116.822 67.5139 117.39 68.6695 117.465 70.0602ZM121.024 67.792C121.878 68.256 121.884 69.2137 121.034 69.2137C120.675 69.2137 120.49 69.465 120.624 69.7715C120.758 70.0787 120.487 70.2896 120.022 70.2397C119.152 70.147 119.017 68.7021 119.801 67.8858C120.314 67.3512 120.226 67.3577 121.024 67.792ZM285.647 68.0255C285.647 68.3522 285.317 68.6154 284.913 68.6106C284.286 68.6029 284.271 68.5174 284.809 68.0255C285.6 67.3007 285.647 67.3007 285.647 68.0255ZM125.268 68.9505C124.196 69.5743 124.139 69.7127 124.849 69.9682C125.514 70.2076 125.47 70.2771 124.619 70.3329C124.012 70.3727 123.364 69.9408 123.087 69.3129C122.647 68.3148 122.77 68.2239 124.558 68.2263C126.492 68.2286 126.498 68.2352 125.268 68.9505ZM131.033 69.6355C131.202 70.8878 131.102 71.0482 130.337 70.7571C129.847 70.5706 128.691 70.406 127.768 70.3917C126.411 70.371 126.232 70.2486 126.833 69.7531C127.242 69.4162 127.471 68.8994 127.342 68.6041C127.213 68.3094 127.947 68.092 128.971 68.1211C130.605 68.1674 130.86 68.3546 131.033 69.6355ZM143.354 69.5481C143.79 70.3917 144.028 70.4761 144.417 69.9242C145.115 68.935 146.009 69.036 146.009 70.1048C146.009 70.7993 145.476 70.9858 143.598 70.949C142.272 70.9235 141.423 70.7672 141.711 70.6027C142.944 69.8975 142.066 69.2137 139.929 69.2137C137.434 69.2137 136.763 70.1755 138.985 70.5664C139.833 70.7149 139.446 70.8415 137.962 70.9009C136.622 70.9544 135.451 70.7126 135.293 70.3502C135.09 69.885 134.884 69.885 134.556 70.3502C134.305 70.7054 133.817 70.9959 133.471 70.9959C133.006 70.9959 132.965 70.8219 133.312 70.3294C133.571 69.9628 133.679 69.2772 133.551 68.8055C133.354 68.0807 134.051 67.988 138.056 68.2049C142.031 68.4199 142.884 68.6356 143.354 69.5481ZM152.716 69.3622C152.72 70.0258 149.874 69.9016 149.578 69.2249C149.425 68.8738 149.996 68.6968 151.019 68.7794C151.951 68.8548 152.715 69.1174 152.716 69.3622ZM167.814 69.1786C167.814 69.4863 167.626 69.9022 167.396 70.1036C166.665 70.744 155.338 70.45 154.396 69.7662C153.917 69.4186 159.111 68.8067 163.307 68.7164C165.892 68.6611 167.814 68.8578 167.814 69.1786ZM186.204 69.5232C186.646 70.1494 185.852 70.3614 181.941 70.6627C177.931 70.9722 173.685 70.2153 173.685 69.1911C173.685 68.6689 185.829 68.9915 186.204 69.5232ZM201.151 69.7864C198.446 70.1286 196.413 69.8767 197.086 69.2826C197.314 69.0812 198.888 69.0408 200.584 69.1923L203.667 69.4679L201.151 69.7864ZM208.49 69.2137C208.49 69.5404 208.407 69.8077 208.305 69.8077C208.203 69.8077 208.003 69.5404 207.861 69.2137C207.718 68.8869 207.802 68.6196 208.046 68.6196C208.29 68.6196 208.49 68.8869 208.49 69.2137ZM217.925 69.2137C217.782 69.5404 217.96 69.8077 218.319 69.8077C218.679 69.8077 218.973 69.5404 218.973 69.2137C218.973 68.8869 218.796 68.6196 218.579 68.6196C218.361 68.6196 218.067 68.8869 217.925 69.2137ZM304.858 69.0253C305.161 69.197 305.522 69.1756 305.662 68.9784C305.801 68.7812 305.553 68.6409 305.111 68.6665C304.623 68.695 304.524 68.8358 304.858 69.0253ZM206.627 69.7519C206.498 70.0478 206.015 70.1505 205.554 69.9794C204.4 69.5523 204.504 69.2137 205.789 69.2137C206.379 69.2137 206.756 69.456 206.627 69.7519ZM228.303 69.6069C228.015 69.7721 227.544 69.7721 227.255 69.6069C226.967 69.4424 227.203 69.3075 227.779 69.3075C228.356 69.3075 228.592 69.4424 228.303 69.6069ZM247.593 69.6069C247.305 69.7721 246.833 69.7721 246.544 69.6069C246.256 69.4424 246.492 69.3075 247.069 69.3075C247.645 69.3075 247.881 69.4424 247.593 69.6069ZM301.792 72.1841C301.934 72.5109 302.134 72.7782 302.236 72.7782C302.338 72.7782 302.421 72.5109 302.421 72.1841C302.421 71.8574 302.221 71.59 301.977 71.59C301.732 71.59 301.649 71.8574 301.792 72.1841ZM312.826 71.9958C313.128 72.1675 313.49 72.1461 313.629 71.9489C313.768 71.7516 313.521 71.6114 313.079 71.637C312.59 71.6655 312.491 71.8063 312.826 71.9958ZM141.396 79.4618C141.396 79.7066 137.575 79.8575 132.905 79.7969C127.027 79.7203 125.51 79.583 127.978 79.3513C133.098 78.8701 141.395 78.9384 141.396 79.4618ZM145.59 79.6799C145.59 79.8046 144.694 79.8759 143.598 79.8373C141.885 79.7767 141.782 79.7102 142.864 79.362C144.039 78.9836 145.59 79.1648 145.59 79.6799ZM123.889 79.7066C123.601 79.8717 123.129 79.8717 122.841 79.7066C122.553 79.542 122.788 79.4072 123.365 79.4072C123.942 79.4072 124.178 79.542 123.889 79.7066ZM85.9382 80.9732C86.2288 81.2441 84.5082 81.4812 82.0644 81.5067C79.6461 81.5322 77.7436 81.379 77.8366 81.1657C78.0908 80.5835 85.3352 80.4118 85.9382 80.9732ZM277.602 81.5014C277.904 81.673 278.266 81.6517 278.405 81.4544C278.544 81.2572 278.297 81.117 277.855 81.1425C277.366 81.171 277.267 81.3118 277.602 81.5014ZM246.955 82.0485C246.816 82.2458 246.454 82.2671 246.151 82.0955C245.817 81.9059 245.916 81.7651 246.405 81.7366C246.847 81.7111 247.094 81.8513 246.955 82.0485ZM101.222 83.3211C103.689 83.4256 107.84 83.4262 110.447 83.3217C113.055 83.2171 111.037 83.1316 105.963 83.131C100.889 83.1304 98.7555 83.2159 101.222 83.3211ZM138.804 83.6015C139.028 83.9181 139.561 84.0726 139.989 83.9437C140.566 83.7708 140.46 83.6211 139.582 83.368C138.817 83.1464 138.542 83.2296 138.804 83.6015ZM268.795 83.2836C269.098 83.4553 269.46 83.434 269.599 83.2367C269.738 83.0395 269.491 82.8993 269.049 82.9248C268.56 82.9533 268.461 83.0941 268.795 83.2836ZM142.135 83.892C142.657 84.034 143.412 84.0286 143.813 83.8801C144.213 83.7316 143.787 83.6152 142.864 83.6217C141.941 83.6282 141.614 83.75 142.135 83.892ZM148.006 83.892C148.528 84.034 149.282 84.0286 149.683 83.8801C150.084 83.7316 149.657 83.6152 148.735 83.6217C147.812 83.6282 147.484 83.75 148.006 83.892ZM161.008 83.9027C161.761 84.0346 162.894 84.0322 163.524 83.8968C164.154 83.7607 163.537 83.6526 162.153 83.6561C160.77 83.6591 160.254 83.7702 161.008 83.9027ZM167.086 83.8985C167.724 84.0346 168.667 84.031 169.183 83.8902C169.699 83.7494 169.177 83.6377 168.024 83.6419C166.871 83.6466 166.449 83.7619 167.086 83.8985ZM222.013 83.8813C222.417 84.031 223.078 84.031 223.481 83.8813C223.884 83.7322 223.554 83.6098 222.747 83.6098C221.94 83.6098 221.61 83.7322 222.013 83.8813ZM228.932 83.8653C229.221 84.0304 229.693 84.0304 229.981 83.8653C230.269 83.7007 230.033 83.5658 229.456 83.5658C228.88 83.5658 228.644 83.7007 228.932 83.8653Z" fill="black"/>
</svg>
