<svg width="32" height="32" viewBox="0 0 32 32" fill="none" xmlns="http://www.w3.org/2000/svg">
<path fill-rule="evenodd" clip-rule="evenodd" d="M23.0815 0.122733C22.7552 0.210999 22.4699 0.314881 22.4474 0.353809C22.4249 0.39251 22.5629 0.488244 22.7542 0.566326C23.101 0.708004 23.1004 0.708456 22.5701 0.778164C22.2776 0.816639 21.845 0.928215 21.6087 1.02599C21.3115 1.14911 21.4628 1.17151 22.0996 1.09864C23.5551 0.932289 25.0497 0.78518 25.2419 0.789027C25.3492 0.791291 25.4083 0.70393 25.3929 0.566326C25.3763 0.417632 25.7342 0.340003 26.4362 0.340003C27.1946 0.340003 27.4967 0.411294 27.4772 0.585789C27.4599 0.740594 27.4855 0.812112 27.5464 0.778616C27.5995 0.749194 27.6706 0.785633 27.7044 0.85964C27.7381 0.933421 28.0419 1.10271 28.3794 1.23579C28.7169 1.36887 29.0621 1.56758 29.1465 1.67734C29.2309 1.78688 29.2999 1.79232 29.2999 1.68934C29.2999 1.43224 29.1916 1.28264 28.5635 0.671792C28.4848 0.595295 28.3375 0.427364 28.2362 0.298812C28.0181 0.0217935 23.9674 -0.11649 23.0815 0.122733ZM10.6242 0.361051C10.4319 0.487112 10.4374 0.497297 10.7162 0.530793C11.0099 0.565873 11.0986 0.470139 10.9208 0.309902C10.8701 0.264185 10.7367 0.287269 10.6242 0.361051ZM10.1742 0.472401C10.1292 0.511103 9.93129 0.608195 9.73439 0.688087C9.53752 0.767979 9.37642 0.908299 9.37642 1.00019C9.37642 1.09185 9.43623 1.12647 9.50938 1.07691C9.61133 1.00788 9.62802 1.04251 9.58097 1.22583C9.53433 1.40734 9.56379 1.45917 9.7037 1.44129C9.8716 1.42001 9.877 1.40281 9.76507 1.24529L9.64234 1.07261L9.79236 1.04568C9.87483 1.03097 9.94847 1.10973 9.956 1.22085C9.96373 1.3356 10.1196 1.34963 10.3174 1.25321C10.6924 1.0708 10.6859 0.983665 10.2969 0.978912C10.1619 0.977102 10.0975 0.925952 10.1537 0.865071C10.2504 0.76051 10.3812 0.302434 10.2949 0.370783C10.2735 0.387757 10.2192 0.433474 10.1742 0.472401ZM24.2798 0.507255C24.1401 0.551388 23.9008 0.551615 23.748 0.507934C23.5952 0.464481 23.7095 0.428269 24.002 0.428042C24.2945 0.42759 24.4195 0.463348 24.2798 0.507255ZM24.8509 0.489828C24.8228 0.552746 24.7767 0.552746 24.7486 0.489828C24.7205 0.427137 24.7435 0.375762 24.7997 0.375762C24.856 0.375762 24.879 0.427137 24.8509 0.489828ZM27.9601 0.716151C27.932 0.779069 27.8859 0.779069 27.8578 0.716151C27.8297 0.65346 27.8527 0.602085 27.9089 0.602085C27.9652 0.602085 27.9882 0.65346 27.9601 0.716151ZM28.2472 0.714793C28.2195 0.776805 28.1643 0.780653 28.1245 0.723167C28.0847 0.665681 28.1074 0.614985 28.1749 0.610458C28.2424 0.605932 28.2749 0.65278 28.2472 0.714793ZM10.7367 0.948584C10.7761 1.00562 10.8405 1.00562 10.8799 0.948584C10.9192 0.891777 10.887 0.845155 10.8083 0.845155C10.7295 0.845155 10.6973 0.891777 10.7367 0.948584ZM11.1253 0.942473C11.1535 1.00539 11.1995 1.00539 11.2276 0.942473C11.2558 0.879782 11.2327 0.828407 11.1765 0.828407C11.1202 0.828407 11.0972 0.879782 11.1253 0.942473ZM3.29325 1.31636C3.28147 1.42182 3.06673 1.48723 2.81603 1.46166C2.36114 1.41571 1.56441 1.74886 1.4303 2.04127C1.38542 2.13904 1.36264 2.40429 1.36804 2.76573C1.37724 3.38087 1.38358 3.40283 1.61362 3.61421C1.80189 3.78735 1.81707 4.15354 1.63408 4.1076C1.51225 4.07704 1.5021 4.12638 1.5129 4.69671C1.52321 5.2417 1.51049 5.31955 1.41063 5.3225C1.26756 5.32702 1.21716 5.52822 1.20587 6.1402C1.19855 6.5383 1.2251 6.64648 1.35928 6.76508C1.57648 6.95722 1.56474 7.27023 1.33494 7.41349C1.15342 7.52665 0.927716 8.34187 0.970918 8.72843C0.981636 8.82461 0.935162 8.97059 0.867619 9.05275C0.761456 9.18175 0.752701 9.24557 0.80298 9.52372C0.834972 9.70071 0.885497 9.84714 0.915239 9.84895C0.955986 9.85166 0.954554 9.90394 0.909429 10.0619C0.867496 10.2086 0.91532 10.2921 1.06935 10.3412C1.28646 10.4105 1.28912 10.42 1.2928 11.1469C1.29489 11.5516 1.28274 11.8825 1.26588 11.8825C1.24903 11.8825 1.2352 12.0861 1.2352 12.3351C1.2352 12.6705 1.20607 12.7957 1.1227 12.8185C1.02463 12.8455 1.02214 12.862 1.1033 12.9482C1.2219 13.074 1.43763 13.6899 1.36378 13.6917C1.33257 13.6924 1.31809 13.8343 1.33069 14.016C1.36399 14.496 1.28298 14.7549 1.01375 15.0292C0.77287 15.2746 0.669079 15.5036 0.798807 15.5036C0.836322 15.5036 0.867005 15.6564 0.867005 15.8431C0.867005 16.1072 0.812471 16.1826 0.621541 16.1826C0.356849 16.1826 0.274537 16.6149 0.529492 16.666C0.624446 16.685 0.647847 16.7341 0.590858 16.795C0.540211 16.8489 0.498809 16.9808 0.498809 17.0883C0.498809 17.1958 0.461703 17.3488 0.416374 17.4285C0.371045 17.5079 0.344126 17.6639 0.356481 17.7745C0.368877 17.8854 0.318516 18.0726 0.24459 18.1905C0.128445 18.3759 0.151887 18.4087 0.416988 18.4322C0.732041 18.4603 0.743741 18.6986 0.444685 18.996C0.312093 19.1277 0.295933 19.2029 0.338767 19.4883C0.379432 19.7594 0.396164 19.7678 0.424393 19.5315C0.451639 19.3031 0.473117 19.3371 0.520901 19.6838C0.577235 20.0923 0.574576 20.1482 0.489441 20.3519C0.40991 20.542 0.428975 20.5918 0.621541 20.6982C0.823476 20.8095 0.837631 20.8505 0.759615 21.0979C0.711831 21.2495 0.592167 21.4414 0.493695 21.5243C0.187643 21.7818 0.17001 22.0516 0.457899 22.0722L0.723818 22.091L0.376077 22.8145L0.0283369 23.5381L0.23289 23.6512L0.437443 23.7644L0.196398 24.0706C0.0279688 24.2847 -0.0274651 24.437 0.0123 24.5764C0.0436376 24.6862 0.106067 24.7847 0.151069 24.7953C0.232317 24.8145 0.232318 24.8159 0.151805 24.9899C0.092976 25.1169 0.143542 25.2187 0.335903 25.3606C0.576172 25.5376 0.585703 25.5637 0.437443 25.6372C0.34744 25.6818 0.256332 25.8135 0.234936 25.9296C0.210839 26.0604 0.381846 26.1476 0.684953 26.1587C1.06252 26.1725 1.14822 26.2284 1.06133 26.4038C0.996119 26.5357 0.948826 26.8005 0.948826 27.0341C0.948826 27.3609 0.877315 27.5175 0.570935 27.8615C0.363109 28.0949 0.227735 28.3228 0.270078 28.3678C0.331689 28.4334 0.335658 28.4898 0.289961 28.6498C0.247986 28.7969 0.259932 28.8514 0.335167 28.8567C0.391419 28.8605 0.464526 28.9585 0.497664 29.0744C0.564594 29.3084 0.547207 29.3657 0.329439 29.628C0.270037 29.6995 0.211453 29.9023 0.199221 30.0788C0.180565 30.3472 0.251259 30.3825 0.63451 30.2952C0.972636 30.2182 1.07602 30.2558 1.03065 30.4391C0.978896 30.6484 0.982128 30.6817 1.0511 30.6514C1.18783 30.5907 1.21777 30.6632 1.15338 30.8985C1.11165 31.0511 1.17052 31.071 1.33748 30.961C1.64308 30.7593 1.62745 30.7571 2.31933 31.1065C2.74333 31.3206 3.36489 31.3555 4.71261 31.2412C5.83131 31.1461 6.88009 31.1787 7.43316 31.3254C9.25594 31.8095 9.43725 31.8434 9.41119 31.6945C9.39659 31.611 9.19408 31.4874 8.96118 31.42C8.72831 31.3528 8.52024 31.2066 8.49888 31.0957C8.44562 30.8189 11.9684 30.8404 13.2108 31.1244C13.9234 31.2874 19.3064 31.6062 21.1791 31.5965C21.597 31.5943 23.4192 31.3082 23.5029 31.2317C23.5719 31.1683 23.6075 31.2152 23.5925 31.3496C23.5788 31.4723 23.586 31.5725 23.6085 31.5725C23.631 31.5725 23.6608 31.4707 23.6747 31.3462C23.7078 31.0495 23.8588 31.0529 23.8588 31.3503C23.8588 31.6062 24.8252 31.6214 25.531 31.3768C25.8541 31.2647 25.9601 31.2975 25.9751 31.5141C25.986 31.6707 26.0216 31.7988 26.0543 31.7988C26.087 31.7988 26.1023 31.697 26.0884 31.5725C26.0745 31.448 26.0964 31.3288 26.1371 31.3075C26.1778 31.2862 26.2388 31.2462 26.2725 31.2183C26.3063 31.1907 26.4351 31.1556 26.5589 31.1405C26.696 31.1237 26.7629 31.0393 26.7302 30.9248C26.6772 30.7385 26.9673 30.5652 27.7862 30.2945C28.1979 30.1585 28.3842 29.7868 28.0705 29.7275C27.9704 29.7085 27.8701 29.6694 27.8476 29.6404C27.8251 29.6114 27.6318 29.5621 27.418 29.5309L27.0294 29.4736L27.2953 29.2975C27.4415 29.2007 27.7422 29.0895 27.9634 29.0508C28.1846 29.0119 28.3744 28.9015 28.3851 28.8053C28.3959 28.7091 28.4415 28.6303 28.4865 28.6303C28.5315 28.6303 28.5584 28.5418 28.5464 28.4334C28.5341 28.3241 28.4467 28.3198 28.3496 28.4237C28.1537 28.6333 27.9671 28.686 27.9964 28.5235C28.0358 28.3053 28.8834 27.4974 28.9421 27.6218C28.9764 27.6945 29.0136 27.5969 29.0274 27.3985C29.0448 27.1484 29.1145 27.0354 29.2679 27.0092L29.484 26.9723L29.259 26.8388C29.082 26.7335 29.0575 26.6763 29.1441 26.5701C29.2047 26.4957 29.3428 26.5106 29.4509 26.6029C29.5591 26.6953 29.6518 26.7503 29.6569 26.7251C29.662 26.6998 29.6369 26.4477 29.601 26.1645C29.5579 25.8237 29.5222 25.7259 29.4952 25.8749C29.4683 26.024 29.4112 26.0202 29.3261 25.8631C29.0975 25.4419 29.1336 25.3471 29.4912 25.4297C29.7406 25.4872 29.8339 25.4381 29.814 25.2599C29.7968 25.1056 29.8224 25.0012 29.8805 24.9888C29.9646 24.9707 29.5625 24.5187 29.2385 24.2671C29.171 24.2145 29.2539 24.1548 29.4226 24.1344C29.5914 24.1138 29.7571 23.9982 29.7908 23.8776C29.8417 23.6956 29.8382 23.6569 29.7704 23.6512C29.7254 23.6474 29.6609 23.5367 29.6272 23.4052C29.5823 23.2305 29.618 23.2047 29.76 23.3095C30.0139 23.4964 30.0676 23.2989 29.9504 22.609C29.8986 22.3035 29.8804 22.067 29.9089 22.067C29.9366 22.067 29.9479 21.9651 29.934 21.8407C29.9201 21.7162 29.8316 21.6127 29.7373 21.6109C29.643 21.6089 29.5382 21.5012 29.5045 21.3713C29.4603 21.2015 29.5033 21.1766 29.6579 21.283C29.8764 21.433 29.9591 21.1316 29.7806 20.8353C29.6908 20.6864 29.6906 20.6774 29.7704 20.4653C29.8352 20.2933 29.8222 20.2677 29.7079 20.3429C29.5432 20.4513 29.3703 19.9633 29.4861 19.7173C29.5224 19.6403 29.5851 19.5774 29.6255 19.5774C29.6659 19.5774 29.7219 19.4247 29.7499 19.2379C29.7899 18.9713 29.79 18.8985 29.7505 18.8985C29.7226 18.8985 29.7107 18.7473 29.7238 18.559C29.7389 18.3408 29.7222 18.2138 29.6771 18.2036C29.6187 18.1903 29.6207 18.1561 29.6885 18.0022C29.7646 17.8298 29.7622 17.799 29.6552 17.5654C29.5919 17.4274 29.5136 17.3142 29.4813 17.3142C29.4491 17.3142 29.4226 17.2124 29.4226 17.0879C29.4226 16.9634 29.5285 16.8516 29.6579 16.8396L29.8931 16.8176L29.7397 16.4693C29.5733 16.0918 29.5432 15.6471 29.6604 15.3002C29.7011 15.1795 29.9405 15.0087 30.1922 14.9204C30.444 14.8323 30.6499 14.6814 30.6499 14.585C30.6499 14.4886 30.5993 14.3075 30.5374 14.1823C30.4433 13.9922 30.4733 13.9522 30.7215 13.9372C30.8898 13.9271 31.0181 13.8214 31.0181 13.693C31.0181 13.5686 30.9802 13.4667 30.9339 13.4667C30.8876 13.4667 30.8606 13.3694 30.8739 13.2504C30.8871 13.1313 30.9251 13.0912 30.9581 13.1614C30.9911 13.2313 31.0181 13.1931 31.0181 13.0763C31.0181 12.9593 30.9307 12.7502 30.8238 12.6114C30.6589 12.3973 30.7222 12.3702 31.2432 12.4313L31.8568 12.5035L31.325 12.0898C30.3943 11.3658 30.411 11.3845 30.5272 11.1919C30.6218 11.0351 30.6228 11.0206 30.5399 10.9998C30.4151 10.9683 30.3835 10.5779 30.4959 10.4584C30.5475 10.4034 30.513 10.3462 30.4181 10.329C30.3244 10.312 30.2415 10.1977 30.234 10.075C30.2265 9.95238 30.0087 9.7686 29.7499 9.66698C29.2891 9.48593 29.283 9.47642 29.4521 9.20415C29.5623 9.02694 29.8492 8.94456 30.2447 8.97647C30.817 9.02287 30.8691 8.99277 30.9226 8.58743C30.9736 8.20109 31.0421 8.13908 31.4903 8.07299C31.8967 8.01324 32 7.9329 32 7.67693C32 7.5004 31.984 7.356 31.9644 7.356C31.9069 7.356 31.2088 6.67409 31.1306 6.5417C30.9828 6.29093 31.0673 5.99716 31.2943 5.97204C31.527 5.94624 31.5278 5.94398 31.3659 5.75885C31.2759 5.65587 31.055 5.5581 30.875 5.5418C30.5544 5.51238 30.1196 5.20481 30.2408 5.09278C30.3563 4.98618 29.9344 4.67363 29.6523 4.65688C29.4065 4.64217 29.3586 4.56816 29.2758 4.07433L29.1811 3.50852L29.353 3.48815L29.5249 3.46778L29.385 3.24531C29.3081 3.12309 29.2114 3.07194 29.1703 3.13147C29.1291 3.19099 29.0953 3.155 29.0953 3.05135C29.0953 2.94769 29.0631 2.8162 29.0238 2.75917C28.9844 2.70236 29.035 2.63107 29.1363 2.60119L29.3204 2.54665L29.1363 2.3751C28.5345 1.81472 24.2554 1.50534 22.8769 1.92268C22.4832 2.04195 21.9738 2.14198 21.7451 2.14493C21.4515 2.149 21.323 2.23387 21.3084 2.43349C21.2927 2.64646 21.2792 2.65121 21.2535 2.45205C21.2247 2.22889 20.3751 1.97202 20.2996 2.16348C20.2257 2.35065 9.44887 2.32598 8.72185 2.137C8.23808 2.01117 7.68579 1.86859 7.49453 1.82015C7.30327 1.77172 6.734 1.67893 6.22953 1.61443C5.72502 1.5497 5.1267 1.43291 4.89994 1.35506C4.24422 1.12964 3.31661 1.10724 3.29325 1.31636ZM24.0557 1.17355C24.0852 1.23896 24.1205 1.23081 24.1341 1.15567C24.1477 1.08053 24.1235 1.02712 24.0804 1.03685C24.0327 1.04771 24.023 1.10135 24.0557 1.17355ZM22.9511 1.39987C22.9806 1.46528 23.0159 1.45713 23.0295 1.38199C23.0431 1.30685 23.0189 1.25344 22.9758 1.26317C22.9281 1.27404 22.9185 1.32767 22.9511 1.39987ZM23.2784 1.39987C23.3079 1.46528 23.3432 1.45713 23.3568 1.38199C23.3704 1.30685 23.3462 1.25344 23.3031 1.26317C23.2554 1.27404 23.2457 1.32767 23.2784 1.39987ZM10.1435 1.85772C10.1941 1.91159 10.2769 1.91159 10.3276 1.85772C10.3782 1.80363 10.3368 1.7595 10.2355 1.7595C10.1343 1.7595 10.0928 1.80363 10.1435 1.85772ZM18.4287 2.7517C18.401 2.81371 18.3457 2.81756 18.3059 2.76007C18.2661 2.70259 18.2888 2.65189 18.3563 2.64736C18.4238 2.64284 18.4564 2.68968 18.4287 2.7517ZM28.9206 2.73993C28.907 2.81507 28.8717 2.82321 28.8422 2.75781C28.8096 2.68561 28.8193 2.63197 28.8669 2.62111C28.9101 2.61138 28.9342 2.66479 28.9206 2.73993ZM22.8243 3.14188C22.8382 3.21905 22.7039 3.29374 22.5258 3.308C22.3476 3.32203 21.7325 3.3854 21.1587 3.44854C20.5849 3.51191 18.5539 3.64205 16.6455 3.73824C14.7369 3.83442 13.0751 3.98221 12.9524 4.06708C12.727 4.22279 12.4572 4.04309 12.5066 3.76992C12.5351 3.61263 12.9223 3.57053 15.0937 3.48973C15.9224 3.45873 16.454 3.35462 16.454 3.22313C16.454 3.10453 16.4799 3.06244 16.5115 3.12965C16.599 3.31524 17.9614 3.28378 18.9495 3.0733C19.9156 2.86735 22.7839 2.91827 22.8243 3.14188ZM23.8929 2.94294C23.8634 3.10567 23.1622 3.12536 23.1331 2.96421C23.1197 2.89021 23.2898 2.82955 23.511 2.82955C23.7323 2.82955 23.9041 2.88047 23.8929 2.94294ZM24.0522 2.96625C24.0387 3.04139 24.0034 3.04954 23.9739 2.98413C23.9412 2.91193 23.9509 2.8583 23.9986 2.84743C24.0417 2.8377 24.0658 2.89111 24.0522 2.96625ZM20.9444 3.21588C20.9953 3.26998 21.0689 3.26794 21.108 3.21136C21.1471 3.15478 21.1055 3.11042 21.0155 3.11291C20.9255 3.1154 20.8935 3.16179 20.9444 3.21588ZM26.532 3.22562C26.5424 3.31886 26.2965 3.39536 25.9856 3.39536C25.6747 3.39536 25.4065 3.31886 25.3896 3.22562C25.3727 3.13237 25.6186 3.05587 25.936 3.05587C26.2534 3.05587 26.5217 3.13237 26.532 3.22562ZM26.743 3.2822C26.6313 3.5479 26.5998 3.5479 26.5998 3.2822C26.5998 3.15772 26.6504 3.06312 26.7123 3.07172C26.812 3.08598 26.8155 3.10974 26.743 3.2822ZM19.2691 3.43678C19.2986 3.50218 19.3339 3.49403 19.3475 3.4189C19.3611 3.34376 19.337 3.29035 19.2939 3.30008C19.2462 3.31094 19.2365 3.36458 19.2691 3.43678ZM19.5128 3.44628C19.5863 3.49652 19.6967 3.49562 19.7582 3.44402C19.8197 3.39219 19.7595 3.351 19.6245 3.35236C19.4895 3.35349 19.4392 3.39581 19.5128 3.44628ZM11.2544 3.97452C11.225 4.07523 11.1842 4.10058 11.1638 4.0311C11.1435 3.96162 11.151 3.8222 11.1804 3.72149C11.2098 3.62078 11.2506 3.59543 11.2709 3.66491C11.2913 3.73439 11.2838 3.8738 11.2544 3.97452ZM11.9947 3.78395C11.9947 3.8815 11.8612 3.94917 11.6981 3.93446C11.478 3.91454 11.4331 3.86407 11.5242 3.73869C11.6813 3.52232 11.9947 3.55265 11.9947 3.78395ZM12.4038 3.62734C12.4038 3.86905 12.1829 4.20061 12.1206 4.05237C12.0696 3.93106 12.0775 3.86249 12.1583 3.72624C12.2833 3.51531 12.4038 3.46688 12.4038 3.62734ZM11.0728 3.97406C11.0596 4.0913 10.9073 4.1859 10.7343 4.18409C10.5612 4.18206 10.4412 4.10579 10.4675 4.01435C10.5403 3.7611 11.1007 3.72375 11.0728 3.97406ZM24.1562 3.88331C24.1285 3.94532 24.0732 3.94917 24.0334 3.89168C23.9936 3.8342 24.0163 3.7835 24.0838 3.77897C24.1513 3.77445 24.1839 3.8213 24.1562 3.88331ZM27.0191 4.12095C26.9685 4.17481 26.8856 4.17481 26.835 4.12095C26.7844 4.06686 26.8258 4.02273 26.9271 4.02273C27.0283 4.02273 27.0697 4.06686 27.0191 4.12095ZM1.64431 7.12968C1.64431 7.25416 1.63621 7.356 1.62627 7.356C1.61632 7.356 1.59685 7.25416 1.58294 7.12968C1.56903 7.0052 1.57717 6.90336 1.60098 6.90336C1.62479 6.90336 1.64431 7.0052 1.64431 7.12968ZM0.53207 15.4319C0.561566 15.4973 0.596872 15.4891 0.610455 15.414C0.624037 15.3389 0.5999 15.2854 0.55678 15.2952C0.509119 15.306 0.499423 15.3597 0.53207 15.4319ZM29.6161 19.2615C29.6025 19.3366 29.5672 19.3448 29.5377 19.2794C29.5051 19.2072 29.5148 19.1535 29.5624 19.1427C29.6055 19.1329 29.6297 19.1863 29.6161 19.2615ZM0.867005 19.8037C0.867005 19.9282 0.84749 20.0301 0.82368 20.0301C0.79987 20.0301 0.791729 19.9282 0.805639 19.8037C0.819549 19.6793 0.839022 19.5774 0.848964 19.5774C0.858905 19.5774 0.867005 19.6793 0.867005 19.8037ZM13.0396 23.2138C13.0836 23.6078 13.0335 23.6913 12.9774 23.3172C12.9451 23.1022 12.942 22.9723 12.9691 22.9723C12.993 22.9723 13.0248 23.0809 13.0396 23.2138ZM15.6338 23.771C15.6581 23.6879 15.6674 23.5252 15.6544 23.4093C15.6409 23.2882 15.7349 23.1986 15.8754 23.1986C16.0166 23.1986 16.1262 23.3036 16.1348 23.4471C16.1431 23.5838 16.2363 23.7497 16.342 23.8155C16.6053 23.9799 16.5453 24.3284 16.2685 24.2422C16.102 24.1903 16.0449 24.2505 16.0449 24.4778C16.0449 24.8621 15.8952 24.8808 15.8674 24.4999C15.8554 24.3359 15.8454 24.389 15.8435 24.6265C15.8418 24.8517 15.8252 24.9843 15.8067 24.9209C15.7882 24.8578 15.7424 25.0044 15.7048 25.247C15.6247 25.7649 15.4312 25.8466 15.4312 25.3629C15.4312 25.1153 15.3957 25.0696 15.2825 25.171C15.1658 25.2758 15.1382 25.2362 15.1539 24.9872C15.165 24.8125 15.2002 24.6801 15.2321 24.6928C15.2641 24.7054 15.3153 24.5667 15.3461 24.3847C15.3947 24.0971 15.3838 24.074 15.2632 24.2089C15.1868 24.2942 15.0937 24.4115 15.0562 24.4694C15.0187 24.5276 14.9773 24.4784 14.9641 24.3608C14.9509 24.2428 15.0333 24.0756 15.147 23.9891C15.2608 23.9025 15.3759 23.6988 15.4028 23.5363C15.4429 23.2941 15.4641 23.3022 15.5207 23.5813C15.5586 23.7687 15.6096 23.854 15.6338 23.771ZM21.4041 23.5125C21.4041 23.6983 21.1539 23.7918 21.134 23.6134C21.1224 23.5098 21.1785 23.4249 21.2585 23.4249C21.3386 23.4249 21.4041 23.4643 21.4041 23.5125ZM13.9337 24.8752C13.8986 25.3819 13.8471 25.1287 13.8594 24.5095C13.8748 23.7395 13.8758 23.7332 13.9188 24.141C13.9407 24.3481 13.9474 24.6785 13.9337 24.8752ZM16.8332 24.026C16.8055 24.088 16.7502 24.0919 16.7104 24.0344C16.6706 23.9769 16.6933 23.9262 16.7608 23.9217C16.8283 23.9172 16.8609 23.964 16.8332 24.026ZM18.2131 24.1154C17.9508 24.3737 17.018 24.3653 16.9449 24.1039C16.9042 23.9584 17.1384 23.8929 17.6404 23.9092C18.158 23.9264 18.339 23.9914 18.2131 24.1154ZM19.062 24.0396C19.0001 24.0914 18.8989 24.0914 18.837 24.0396C18.7751 23.9878 18.8258 23.9455 18.9495 23.9455C19.0733 23.9455 19.1239 23.9878 19.062 24.0396ZM19.4507 24.0274C19.4226 24.0903 19.3765 24.0903 19.3484 24.0274C19.3203 23.9647 19.3433 23.9133 19.3995 23.9133C19.4558 23.9133 19.4788 23.9647 19.4507 24.0274ZM19.8598 24.0274C19.8317 24.0903 19.7856 24.0903 19.7575 24.0274C19.7294 23.9647 19.7524 23.9133 19.8086 23.9133C19.8649 23.9133 19.8879 23.9647 19.8598 24.0274ZM12.8947 24.2146C12.8947 24.5441 12.7422 25.2344 12.6709 25.228C12.5911 25.2208 12.5915 25.2038 12.6815 24.7887L12.7751 24.3571L12.5997 24.27C12.4457 24.1935 12.4529 24.1781 12.6595 24.1435C12.7889 24.1218 12.8947 24.1537 12.8947 24.2146ZM13.0882 24.2406C13.0746 24.3157 13.0393 24.3239 13.0098 24.2585C12.9772 24.1863 12.9869 24.1326 13.0345 24.1218C13.0776 24.112 13.1018 24.1654 13.0882 24.2406ZM15.5948 24.3302C15.5948 24.4547 15.6144 24.5565 15.6382 24.5565C15.662 24.5565 15.6701 24.4547 15.6562 24.3302C15.6423 24.2057 15.6228 24.1039 15.6129 24.1039C15.6029 24.1039 15.5948 24.2057 15.5948 24.3302ZM28.3888 24.2406C28.3752 24.3157 28.3399 24.3239 28.3104 24.2585C28.2777 24.1863 28.2874 24.1326 28.3351 24.1218C28.3782 24.112 28.4024 24.1654 28.3888 24.2406ZM28.6965 24.2537C28.6684 24.3166 28.6223 24.3166 28.5942 24.2537C28.5661 24.191 28.5891 24.1396 28.6453 24.1396C28.7016 24.1396 28.7246 24.191 28.6965 24.2537ZM11.1245 24.4669C11.1109 24.542 11.0756 24.5502 11.0461 24.4848C11.0135 24.4126 11.0232 24.3589 11.0708 24.3481C11.1139 24.3383 11.1381 24.3918 11.1245 24.4669ZM12.2717 24.5991C12.2628 24.7469 12.2311 24.9128 12.2012 24.9678C12.1707 25.0241 12.1587 24.9632 12.1737 24.8283C12.1887 24.6939 12.1599 24.5457 12.1078 24.4904C12.0418 24.4203 12.0544 24.3829 12.1515 24.361C12.2405 24.3408 12.2823 24.4237 12.2717 24.5991ZM13.5698 24.7828C13.5549 25.0424 13.5624 25.2355 13.5875 25.2355C13.6115 25.2355 13.6311 25.3204 13.6311 25.424C13.6311 25.718 13.4648 25.5775 13.4285 25.2527C13.4034 25.028 13.3763 25.0212 13.3082 25.2226C13.2599 25.3656 13.2004 25.4147 13.1761 25.3315C13.127 25.1635 13.4031 24.3777 13.5214 24.3485C13.5776 24.3347 13.5894 24.4404 13.5698 24.7828ZM21.3019 24.5565C21.3158 24.681 21.3076 24.7828 21.2838 24.7828C21.26 24.7828 21.2405 24.681 21.2405 24.5565C21.2405 24.432 21.2486 24.3302 21.2585 24.3302C21.2685 24.3302 21.288 24.432 21.3019 24.5565ZM21.6905 24.43C21.6905 24.485 21.6721 24.5927 21.6496 24.6697C21.6271 24.7466 21.6087 24.7016 21.6087 24.5699C21.6087 24.4382 21.6271 24.3302 21.6496 24.3302C21.6721 24.3302 21.6905 24.375 21.6905 24.43ZM27.6745 24.4787C27.6468 24.5407 27.5916 24.5445 27.5517 24.487C27.5119 24.4296 27.5346 24.3789 27.6021 24.3743C27.6696 24.3698 27.7022 24.4167 27.6745 24.4787ZM27.8978 24.4669C27.8843 24.542 27.849 24.5502 27.8195 24.4848C27.7868 24.4126 27.7965 24.3589 27.8442 24.3481C27.8873 24.3383 27.9114 24.3918 27.8978 24.4669ZM11.7288 24.7828C11.7427 24.9073 11.7345 25.0092 11.7107 25.0092C11.6869 25.0092 11.6674 24.9073 11.6674 24.7828C11.6674 24.6584 11.6755 24.5565 11.6855 24.5565C11.6954 24.5565 11.7149 24.6584 11.7288 24.7828ZM16.5656 24.6932C16.552 24.7684 16.5167 24.7765 16.4872 24.7111C16.4546 24.6389 16.4643 24.5853 16.5119 24.5744C16.555 24.5647 16.5792 24.6181 16.5656 24.6932ZM16.7702 24.6932C16.7566 24.7684 16.7213 24.7765 16.6918 24.7111C16.6591 24.6389 16.6688 24.5853 16.7165 24.5744C16.7596 24.5647 16.7837 24.6181 16.7702 24.6932ZM17.1494 24.896C17.1494 25.0827 17.1678 25.2355 17.1904 25.2355C17.2129 25.2355 17.2312 25.1083 17.2312 24.9526C17.2311 24.7426 17.3209 24.6887 17.5795 24.743C17.7901 24.7874 17.9182 24.9028 17.9034 25.0352C17.89 25.1554 17.8465 25.1968 17.8068 25.1271C17.7671 25.0574 17.6812 25.1547 17.6159 25.343C17.5108 25.6463 17.4957 25.6467 17.484 25.3473C17.4692 24.9693 17.291 24.8836 17.2517 25.2355C17.2243 25.4811 17.0556 25.5462 17.0159 25.3265C16.9761 25.1063 17.0308 24.5565 17.0925 24.5565C17.1238 24.5565 17.1494 24.7093 17.1494 24.896ZM20.9132 24.896C20.8701 25.1834 20.8791 25.2355 20.972 25.2355C21.0347 25.2355 21.0708 25.3324 21.0564 25.4618C21.0425 25.5863 20.9923 25.6881 20.9449 25.6881C20.8975 25.6881 20.8718 25.761 20.8879 25.85C20.904 25.9389 21.0662 25.9803 21.2483 25.9423C21.5441 25.8803 21.5766 25.9133 21.5531 26.2521C21.5358 26.5015 21.5443 26.5957 21.578 26.5276C21.6061 26.4703 21.6246 26.3092 21.6189 26.1691C21.6133 26.029 21.6558 25.9145 21.7134 25.9145C21.7728 25.9145 21.8072 26.0125 21.7928 26.1408C21.7789 26.2653 21.787 26.3671 21.8108 26.3671C21.8346 26.3671 21.8542 26.2653 21.8542 26.1408C21.8542 25.7642 22.0072 25.8873 22.0349 26.2863C22.049 26.4909 22.0545 26.6923 22.047 26.734C22.0394 26.7754 21.8519 26.8372 21.6301 26.8711C21.3358 26.9162 21.2223 26.8566 21.2099 26.65C21.2004 26.4945 21.1564 26.3671 21.112 26.3671C21.0675 26.3671 21.0425 26.469 21.0564 26.5934C21.0712 26.7254 21.0296 26.8198 20.9565 26.8198C20.8877 26.8198 20.8314 26.7179 20.8314 26.5934C20.8314 26.469 20.7633 26.3671 20.68 26.3671C20.5145 26.3671 20.5357 26.0052 20.7087 25.8771C20.7856 25.8201 20.8141 25.6469 20.8239 25.1789C20.8318 24.7973 20.8615 24.5565 20.9005 24.5565C20.9525 24.5565 20.9548 24.619 20.9132 24.896ZM24.9838 25.0784C25.0288 25.1434 24.9782 25.1862 24.8713 25.1737C24.7645 25.1613 24.677 25.0612 24.677 24.9517C24.677 24.8419 24.7161 24.8211 24.7639 24.9051C24.8304 25.0216 24.843 24.9854 24.8174 24.7505C24.7912 24.509 24.7966 24.4986 24.843 24.7018C24.8755 24.8442 24.9388 25.0135 24.9838 25.0784ZM19.87 25.0092C19.8561 25.1336 19.8274 25.2355 19.8062 25.2355C19.785 25.2355 19.7677 25.1336 19.7677 25.0092C19.7677 24.8847 19.7964 24.7828 19.8315 24.7828C19.8666 24.7828 19.8839 24.8847 19.87 25.0092ZM15.513 25.2355C15.5923 25.5191 15.6357 25.5191 15.6357 25.2355C15.6357 25.111 15.5943 25.0108 15.5437 25.0126C15.4693 25.0155 15.4634 25.0581 15.513 25.2355ZM19.3586 25.3337C19.3586 25.5175 19.4074 25.6927 19.4711 25.7377C19.5614 25.8015 19.5502 25.8386 19.4149 25.9258C19.261 26.0247 19.2461 25.9889 19.2461 25.5218C19.2461 25.2378 19.2712 25.0092 19.3024 25.0092C19.3333 25.0092 19.3586 25.1551 19.3586 25.3337ZM20.6268 25.2018C20.6268 25.3154 20.5528 25.4141 20.4624 25.4211C20.3719 25.4279 20.3062 25.3593 20.3163 25.2688C20.3438 25.023 20.6268 24.9619 20.6268 25.2018ZM7.88318 25.4618C7.89709 25.5863 7.87974 25.6881 7.84468 25.6881C7.80962 25.6881 7.7809 25.5863 7.7809 25.4618C7.7809 25.3373 7.79821 25.2355 7.8194 25.2355C7.84059 25.2355 7.86927 25.3373 7.88318 25.4618ZM16.0039 25.4752C16.0039 25.6069 15.9835 25.6449 15.9584 25.5594C15.9335 25.4738 15.8969 25.5442 15.8773 25.7157C15.849 25.9624 15.8414 25.9448 15.8409 25.6316C15.8405 25.3853 15.8712 25.2355 15.9221 25.2355C15.9671 25.2355 16.0039 25.3434 16.0039 25.4752ZM16.5767 25.4052C16.5767 25.4985 16.5324 25.575 16.4783 25.575C16.4242 25.575 16.3885 25.4985 16.3989 25.4052C16.4093 25.312 16.4536 25.2355 16.4973 25.2355C16.541 25.2355 16.5767 25.312 16.5767 25.4052ZM24.3702 25.4618C24.3563 25.5863 24.3045 25.6809 24.2552 25.6723C24.1688 25.6569 24.1686 25.6494 24.2474 25.4618C24.36 25.1941 24.4001 25.1941 24.3702 25.4618ZM27.3771 25.4618C27.3771 25.5863 27.4185 25.6897 27.4691 25.6915C27.5198 25.6936 27.5888 25.7938 27.6226 25.9145C27.6678 26.0763 27.6356 26.1464 27.4998 26.1815C27.3986 26.2078 27.2513 26.2696 27.1725 26.3187C27.0938 26.368 26.3942 26.4382 25.6179 26.4746C24.8417 26.511 24.317 26.4649 24.452 26.3719C24.587 26.2791 24.7895 26.1397 24.902 26.0622C25.3343 25.7651 25.8585 25.6877 25.8841 25.9169C25.8983 26.0441 25.9289 26.0835 25.9519 26.0045C25.975 25.9258 26.0369 25.9885 26.0896 26.1442C26.1421 26.2999 26.2186 26.3533 26.2595 26.2628C26.3004 26.1722 26.4662 26.0804 26.6279 26.0586C26.7895 26.0369 26.9338 25.9525 26.9486 25.871C26.9632 25.7898 27.0381 25.7796 27.1148 25.8484C27.2258 25.948 27.2544 25.8982 27.2544 25.6046C27.2544 25.4016 27.282 25.2355 27.3157 25.2355C27.3495 25.2355 27.3771 25.3373 27.3771 25.4618ZM28.5806 25.5184C28.5996 25.7447 28.6092 25.7447 28.6283 25.5184C28.654 25.2142 28.9955 25.1174 29.0277 25.4052C29.0381 25.4985 28.9655 25.5392 28.8665 25.4955C28.7539 25.446 28.6862 25.5098 28.6862 25.6653C28.6862 26.0428 28.4938 25.9636 28.4669 25.575C28.4382 25.1622 28.546 25.1085 28.5806 25.5184ZM19.0927 25.6881C19.0788 25.8126 19.0179 25.9072 18.9573 25.8986C18.859 25.8844 18.856 25.8617 18.9291 25.6881C19.0427 25.4179 19.1229 25.4179 19.0927 25.6881ZM22.9383 25.6881C22.9244 25.8126 22.9509 25.9145 22.9972 25.9145C23.0436 25.9145 23.0815 25.8126 23.0815 25.6881C23.0815 25.4209 23.1608 25.4813 23.2281 25.7999C23.2899 26.0921 23.0798 26.6079 22.9661 26.4434C22.9221 26.3798 22.8738 26.4384 22.8587 26.5737C22.8435 26.7091 22.8036 26.8198 22.7698 26.8198C22.7361 26.8198 22.7207 26.71 22.7357 26.576C22.7546 26.4072 22.705 26.3802 22.5745 26.4884C22.4601 26.5832 22.386 26.5581 22.386 26.4244C22.386 26.3033 22.4915 26.1437 22.6206 26.0702C22.7496 25.9966 22.8616 25.8296 22.8694 25.699C22.8773 25.5686 22.9017 25.4618 22.9236 25.4618C22.9456 25.4618 22.9522 25.5637 22.9383 25.6881ZM24.108 25.6705C24.0763 25.7816 23.9962 25.8346 23.9299 25.7882C23.8372 25.7232 23.8047 25.8061 23.7885 26.1487C23.7769 26.3934 23.7517 26.5934 23.7326 26.5934C23.6884 26.5934 23.736 25.8565 23.7944 25.635C23.8186 25.5435 23.912 25.4688 24.002 25.4688C24.1136 25.4688 24.1473 25.5329 24.108 25.6705ZM9.7037 25.888C9.7037 26.1575 9.54554 26.3728 9.5194 26.139C9.50799 26.0367 9.52177 25.9016 9.55004 25.8384C9.63383 25.6515 9.7037 25.6741 9.7037 25.888ZM10.2355 25.9145C10.2355 26.0389 10.2182 26.1408 10.197 26.1408C10.1759 26.1408 10.1472 26.0389 10.1333 25.9145C10.1194 25.79 10.1367 25.6881 10.1718 25.6881C10.2068 25.6881 10.2355 25.79 10.2355 25.9145ZM10.9719 25.8898C10.9719 26.232 10.6732 26.3049 10.5639 25.9894C10.4682 25.713 10.4795 25.6909 10.7162 25.6895C10.8569 25.6888 10.9719 25.7789 10.9719 25.8898ZM11.0977 25.9767C11.0927 26.2474 11.0366 26.1949 11.019 25.9031C11.01 25.7538 11.0247 25.6723 11.0517 25.7221C11.0787 25.7719 11.0994 25.8864 11.0977 25.9767ZM11.46 26.6896C11.4616 26.8048 11.4287 26.703 11.387 26.4633C11.3356 26.1679 11.3257 25.9756 11.3563 25.8663C11.3973 25.7196 11.4527 26.1598 11.46 26.6896ZM11.8072 25.8255C11.8905 26.0023 11.8912 26.3671 11.8082 26.3671C11.7731 26.3671 11.7551 26.4628 11.7682 26.5796C11.7812 26.6966 11.7548 26.777 11.7094 26.758C11.6246 26.7227 11.6114 26.1722 11.6879 25.8613C11.738 25.6576 11.7294 25.6601 11.8072 25.8255ZM27.868 25.9145C27.868 26.0389 27.8358 26.1392 27.7964 26.1374C27.7352 26.1344 27.7338 26.1019 27.7862 25.9145C27.8634 25.6383 27.868 25.6383 27.868 25.9145ZM12.2213 26.2668C12.1167 26.5045 12.1111 26.5572 12.1804 26.6545C12.2452 26.7457 12.2409 26.7722 12.158 26.7935C12.0987 26.8087 12.0355 26.6441 12.0084 26.4049C11.9655 26.0247 11.9776 25.9901 12.152 25.991C12.3407 25.9919 12.3413 25.9944 12.2213 26.2668ZM12.7837 26.5278C12.8001 27.0049 12.7905 27.066 12.7158 26.9551C12.668 26.884 12.5552 26.8213 12.4652 26.8159C12.3327 26.808 12.3154 26.7614 12.374 26.5726C12.4138 26.4443 12.4362 26.2474 12.4236 26.1349C12.411 26.0226 12.4826 25.9398 12.5826 25.9509C12.7419 25.9685 12.7668 26.0398 12.7837 26.5278ZM13.9858 26.4945C14.0283 26.8159 14.0515 26.848 14.0895 26.6378C14.1576 26.261 14.2448 26.2994 14.2448 26.7066C14.2448 26.9712 14.1928 27.0422 14.0095 27.0282C13.8801 27.0185 13.7973 26.9589 13.8255 26.8962C13.9457 26.6276 13.8601 26.3671 13.6516 26.3671C13.4082 26.3671 13.3427 26.7335 13.5595 26.8824C13.6422 26.939 13.6045 26.9872 13.4597 27.0099C13.329 27.0302 13.2148 26.9381 13.1994 26.8001C13.1796 26.6228 13.1594 26.6228 13.1274 26.8001C13.1029 26.9354 13.0553 27.0461 13.0216 27.0461C12.9762 27.0461 12.9722 26.9798 13.0061 26.7921C13.0313 26.6525 13.0418 26.3913 13.0293 26.2116C13.0102 25.9355 13.0781 25.9002 13.4689 25.9828C13.8567 26.0647 13.9399 26.1469 13.9858 26.4945ZM14.8991 26.4237C14.8995 26.6765 14.6218 26.6292 14.593 26.3714C14.578 26.2376 14.6338 26.1702 14.7336 26.2017C14.8245 26.2304 14.899 26.3304 14.8991 26.4237ZM16.3721 26.3538C16.3721 26.471 16.3538 26.6294 16.3313 26.7061C16.26 26.9501 15.1549 26.8381 15.063 26.5776C15.0163 26.4452 15.523 26.2121 15.9323 26.1777C16.1846 26.1566 16.3721 26.2315 16.3721 26.3538ZM18.1662 26.485C18.2094 26.7236 18.132 26.8044 17.7504 26.9191C17.3591 27.037 16.9449 26.7487 16.9449 26.3585C16.9449 26.1596 18.1296 26.2825 18.1662 26.485ZM19.6245 26.5853C19.3606 26.7156 19.1622 26.6197 19.2279 26.3934C19.2502 26.3166 19.4037 26.3012 19.5692 26.359L19.87 26.464L19.6245 26.5853ZM20.3405 26.3671C20.3405 26.4916 20.3324 26.5934 20.3224 26.5934C20.3125 26.5934 20.293 26.4916 20.2791 26.3671C20.2652 26.2426 20.2733 26.1408 20.2971 26.1408C20.321 26.1408 20.3405 26.2426 20.3405 26.3671ZM21.261 26.3671C21.247 26.4916 21.2644 26.5934 21.2995 26.5934C21.3345 26.5934 21.3632 26.4916 21.3632 26.3671C21.3632 26.2426 21.3459 26.1408 21.3247 26.1408C21.3035 26.1408 21.2749 26.2426 21.261 26.3671ZM29.7423 26.2954C29.7718 26.3608 29.8071 26.3526 29.8206 26.2775C29.8342 26.2023 29.8101 26.1489 29.767 26.1587C29.7193 26.1695 29.7096 26.2232 29.7423 26.2954ZM20.1587 26.5722C20.1461 26.6849 20.099 26.724 20.0541 26.6588C19.9415 26.4961 19.9516 26.3671 20.077 26.3671C20.1345 26.3671 20.1713 26.4594 20.1587 26.5722ZM22.2735 26.5169C22.2454 26.5798 22.1994 26.5798 22.1712 26.5169C22.1431 26.4542 22.1661 26.4029 22.2224 26.4029C22.2786 26.4029 22.3016 26.4542 22.2735 26.5169ZM24.1554 26.5169C24.1273 26.5798 24.0813 26.5798 24.0531 26.5169C24.025 26.4542 24.048 26.4029 24.1042 26.4029C24.1605 26.4029 24.1835 26.4542 24.1554 26.5169ZM29.4431 27.4987C29.457 27.6232 29.4765 27.725 29.4864 27.725C29.4964 27.725 29.5045 27.6232 29.5045 27.4987C29.5045 27.3742 29.4849 27.2724 29.4611 27.2724C29.4373 27.2724 29.4292 27.3742 29.4431 27.4987ZM30.5196 27.427C30.5491 27.4924 30.5844 27.4842 30.598 27.4091C30.6115 27.334 30.5874 27.2805 30.5443 27.2903C30.4966 27.3011 30.4869 27.3548 30.5196 27.427ZM13.7947 30.2712C13.7947 30.3644 13.4219 30.4219 12.9663 30.3988C12.3928 30.3696 12.2449 30.3173 12.4856 30.2291C12.9851 30.0458 13.7946 30.0718 13.7947 30.2712ZM14.2039 30.3542C14.2039 30.4018 14.1164 30.4289 14.0095 30.4142C13.8424 30.3911 13.8324 30.3658 13.938 30.2331C14.0526 30.089 14.2039 30.158 14.2039 30.3542ZM12.0867 30.3644C12.0586 30.4273 12.0126 30.4273 11.9845 30.3644C11.9564 30.3017 11.9794 30.2503 12.0356 30.2503C12.0919 30.2503 12.1149 30.3017 12.0867 30.3644ZM8.38421 30.8469C8.41256 30.9501 8.24471 31.0404 8.00628 31.0502C7.77035 31.0599 7.58474 31.0015 7.59382 30.9203C7.61861 30.6985 8.32538 30.6331 8.38421 30.8469ZM27.0831 31.0481C27.1126 31.1135 27.1479 31.1054 27.1615 31.0303C27.175 30.9551 27.1509 30.9017 27.1078 30.9114C27.0601 30.9223 27.0504 30.9759 27.0831 31.0481ZM24.0932 31.2566C24.0796 31.3317 24.0443 31.3399 24.0148 31.2745C23.9821 31.2023 23.9918 31.1486 24.0395 31.1378C24.0826 31.128 24.1067 31.1814 24.0932 31.2566ZM9.87532 31.7414C10.116 31.7812 10.521 31.7814 10.7754 31.7416C11.0297 31.7018 10.8328 31.6692 10.3378 31.6689C9.8428 31.6687 9.63469 31.7013 9.87532 31.7414ZM13.5419 31.8482C13.5637 31.9688 13.6157 32.0277 13.6575 31.9785C13.7137 31.9127 13.7034 31.8557 13.6178 31.7592C13.5431 31.6748 13.5162 31.7065 13.5419 31.8482ZM26.2239 31.7271C26.2534 31.7925 26.2888 31.7844 26.3023 31.7092C26.3159 31.6341 26.2918 31.5807 26.2487 31.5904C26.201 31.6013 26.1913 31.6549 26.2239 31.7271ZM13.8669 31.9589C13.9177 32.0129 13.9914 32.0109 14.0305 31.9543C14.0696 31.8977 14.028 31.8534 13.938 31.8559C13.848 31.8584 13.816 31.9048 13.8669 31.9589ZM14.4396 31.9589C14.4905 32.0129 14.5641 32.0109 14.6032 31.9543C14.6424 31.8977 14.6007 31.8534 14.5107 31.8559C14.4207 31.8584 14.3887 31.9048 14.4396 31.9589ZM15.7081 31.9629C15.7816 32.0132 15.8921 32.0123 15.9535 31.9607C16.015 31.9088 15.9548 31.8676 15.8198 31.869C15.6848 31.8701 15.6346 31.9125 15.7081 31.9629ZM16.3011 31.9613C16.3633 32.0132 16.4553 32.0118 16.5057 31.9582C16.556 31.9045 16.5051 31.862 16.3926 31.8636C16.2801 31.8654 16.2389 31.9093 16.3011 31.9613ZM21.6598 31.9548C21.6992 32.0118 21.7637 32.0118 21.803 31.9548C21.8424 31.898 21.8102 31.8514 21.7314 31.8514C21.6527 31.8514 21.6205 31.898 21.6598 31.9548ZM22.3349 31.9487C22.363 32.0116 22.409 32.0116 22.4371 31.9487C22.4653 31.886 22.4423 31.8346 22.386 31.8346C22.3297 31.8346 22.3068 31.886 22.3349 31.9487Z" fill="white" fill-opacity="0.1"/>
</svg>
